<svg width="512" height="512" viewBox="0 0 512 512" fill="none" xmlns="http://www.w3.org/2000/svg">
  <!-- Background with gradient -->
  <rect width="512" height="512" rx="115" fill="url(#gradient)"/>
  
  <!-- Gradient definition -->
  <defs>
    <linearGradient id="gradient" x1="0" y1="0" x2="512" y2="512" gradientUnits="userSpaceOnUse">
      <stop offset="0%" stop-color="#6366f1"/>
      <stop offset="100%" stop-color="#8b5cf6"/>
    </linearGradient>
    
    <!-- Shadow for depth -->
    <filter id="shadow" x="-50%" y="-50%" width="200%" height="200%">
      <feGaussianBlur in="SourceAlpha" stdDeviation="8"/>
      <feOffset dx="0" dy="4" result="offsetblur"/>
      <feComponentTransfer>
        <feFuncA type="linear" slope="0.3"/>
      </feComponentTransfer>
      <feMerge>
        <feMergeNode/>
        <feMergeNode in="SourceGraphic"/>
      </feMerge>
    </filter>
  </defs>
  
  <!-- Note paper with shadow -->
  <g filter="url(#shadow)">
    <!-- Main note paper -->
    <rect x="120" y="80" width="272" height="352" rx="16" fill="white"/>
    
    <!-- Folded corner -->
    <path d="M 392 80 L 392 128 L 344 80 Z" fill="#e5e7eb"/>
    <path d="M 344 80 L 392 128 L 392 80 Z" fill="#f3f4f6"/>
    
    <!-- Lines on the note -->
    <line x1="160" y1="160" x2="352" y2="160" stroke="#e5e7eb" stroke-width="3" stroke-linecap="round"/>
    <line x1="160" y1="200" x2="352" y2="200" stroke="#e5e7eb" stroke-width="3" stroke-linecap="round"/>
    <line x1="160" y1="240" x2="320" y2="240" stroke="#e5e7eb" stroke-width="3" stroke-linecap="round"/>
    <line x1="160" y1="280" x2="352" y2="280" stroke="#e5e7eb" stroke-width="3" stroke-linecap="round"/>
    <line x1="160" y1="320" x2="280" y2="320" stroke="#e5e7eb" stroke-width="3" stroke-linecap="round"/>
    
    <!-- Pen icon -->
    <g transform="translate(300, 340)">
      <!-- Pen body -->
      <path d="M 0 0 L 40 40 L 35 45 L -5 5 Z" fill="#6366f1"/>
      <path d="M 40 40 L 45 35 L 50 40 L 45 45 Z" fill="#4f46e5"/>
      <!-- Pen tip -->
      <path d="M -5 5 L 0 0 L -10 10 Z" fill="#1e1b4b"/>
    </g>
  </g>
</svg>
